ffmpeg started on 2016-12-05 at 19:51:31
Report written to "Output/x264/results/ffmpeg/crowd_run_2160p50faster10000k.log"
Command line:
Tools/ffmpeg/ffmpeg -benchmark -y -i Input/y4m/crowd_run_2160p50.y4m -c:v libx264 -preset faster -b:v 10000k -an Output/x264/encoded/crowd_run_2160p50faster10000k.mkv
ffmpeg version N-82227-gdb23fde Copyright (c) 2000-2016 the FFmpeg developers
  built with gcc 5.4.0 (Ubuntu 5.4.0-6ubuntu1~16.04.2) 20160609
  configuration: --prefix=/home/jaroslav/ffmpeg_build --pkg-config-flags=--static --extra-cflags=-I/home/jaroslav/ffmpeg_build/include --extra-ldflags=-L/home/jaroslav/ffmpeg_build/lib --bindir=/home/jaroslav/bin --enable-gpl --enable-libass --enable-libfdk-aac --enable-libfreetype --enable-libmp3lame --enable-libopus --enable-libtheora --enable-libvorbis --enable-libvpx --enable-libx264 --enable-libx265 --enable-nvenc --enable-libmfx --enable-libxvid --enable-libgsm --enable-libopencore-amrnb --enable-version3 --enable-nonfree
  libavutil      55. 35.100 / 55. 35.100
  libavcodec     57. 66.101 / 57. 66.101
  libavformat    57. 57.100 / 57. 57.100
  libavdevice    57.  2.100 / 57.  2.100
  libavfilter     6. 66.100 /  6. 66.100
  libswscale      4.  3.100 /  4.  3.100
  libswresample   2.  4.100 /  2.  4.100
  libpostproc    54.  2.100 / 54.  2.100
Input #0, yuv4mpegpipe, from 'Input/y4m/crowd_run_2160p50.y4m':
  Duration: 00:00:10.00, start: 0.000000, bitrate: 4976642 kb/s
    Stream #0:0: Video: rawvideo (I420 / 0x30323449), yuv420p(progressive), 3840x2160, SAR 1:1 DAR 16:9, 50 fps, 50 tbr, 50 tbn, 50 tbc
[libx264 @ 0x393d1c0] using SAR=1/1
[libx264 @ 0x393d1c0] using cpu capabilities: MMX2 SSE2Fast SSSE3 SSE4.2 AVX FMA3 AVX2 LZCNT BMI2
[libx264 @ 0x393d1c0] profile High, level 5.2
[libx264 @ 0x393d1c0] 264 - core 148 - H.264/MPEG-4 AVC codec - Copyleft 2003-2016 - http://www.videolan.org/x264.html - options: cabac=1 ref=2 deblock=1:0:0 analyse=0x3:0x113 me=hex subme=4 psy=1 psy_rd=1.00:0.00 mixed_ref=0 me_range=16 chroma_me=1 trellis=1 8x8dct=1 cqm=0 deadzone=21,11 fast_pskip=1 chroma_qp_offset=0 threads=6 lookahead_threads=1 sliced_threads=0 nr=0 decimate=1 interlaced=0 bluray_compat=0 constrained_intra=0 bframes=3 b_pyramid=2 b_adapt=1 b_bias=0 direct=1 weightb=1 open_gop=0 weightp=1 keyint=250 keyint_min=25 scenecut=40 intra_refresh=0 rc_lookahead=20 rc=abr mbtree=1 bitrate=10000 ratetol=1.0 qcomp=0.60 qpmin=0 qpmax=69 qpstep=4 ip_ratio=1.40 aq=1:1.00
Output #0, matroska, to 'Output/x264/encoded/crowd_run_2160p50faster10000k.mkv':
  Metadata:
    encoder         : Lavf57.57.100
    Stream #0:0: Video: h264 (libx264) (H264 / 0x34363248), yuv420p, 3840x2160 [SAR 1:1 DAR 16:9], q=-1--1, 10000 kb/s, 50 fps, 1k tbn, 50 tbc
    Metadata:
      encoder         : Lavc57.66.101 libx264
    Side data:
      cpb: bitrate max/min/avg: 0/0/10000000 buffer size: 0 vbv_delay: -1
Stream mapping:
  Stream #0:0 -> #0:0 (rawvideo (native) -> h264 (libx264))
Press [q] to stop, [?] for help
frame=   19 fps=0.0 q=0.0 size=       0kB time=00:00:00.00 bitrate=N/A speed=   0x    frame=   27 fps= 15 q=0.0 size=       0kB time=00:00:00.00 bitrate=N/A speed=   0x    frame=   34 fps= 14 q=35.0 size=       1kB time=00:00:00.02 bitrate= 279.2kbits/s speed=0.00863x    frame=   41 fps= 14 q=45.0 size=       1kB time=00:00:00.16 bitrate=  36.4kbits/s speed=0.0545x    frame=   48 fps= 14 q=49.0 size=       1kB time=00:00:00.30 bitrate=  19.5kbits/s speed=0.0867x    frame=   57 fps= 14 q=49.0 size=       1kB time=00:00:00.48 bitrate=  12.2kbits/s speed=0.12x    frame=   66 fps= 15 q=49.0 size=       1kB time=00:00:00.66 bitrate=   8.9kbits/s speed=0.145x    frame=   74 fps= 15 q=49.0 size=       1kB time=00:00:00.82 bitrate=   7.1kbits/s speed=0.162x    frame=   83 fps= 15 q=49.0 size=       1kB time=00:00:01.00 bitrate=   5.9kbits/s speed=0.179x    frame=   91 fps= 15 q=49.0 size=       1kB time=00:00:01.16 bitrate=   5.1kbits/s speed=0.19x    frame=  100 fps= 15 q=49.0 size=       1kB time=00:00:01.34 bitrate=   4.4kbits/s speed=0.201x    frame=  109 fps= 15 q=48.0 size=       1kB time=00:00:01.52 bitrate=   3.9kbits/s speed=0.211x    frame=  118 fps= 15 q=48.0 size=       1kB time=00:00:01.70 bitrate=   3.4kbits/s speed=0.217x    frame=  128 fps= 15 q=48.0 size=       1kB time=00:00:01.90 bitrate=   3.1kbits/s speed=0.226x    frame=  137 fps= 15 q=48.0 size=       1kB time=00:00:02.08 bitrate=   2.8kbits/s speed=0.233x    frame=  145 fps= 15 q=48.0 size=       1kB time=00:00:02.24 bitrate=   2.6kbits/s speed=0.237x    frame=  154 fps= 15 q=48.0 size=       1kB time=00:00:02.42 bitrate=   2.4kbits/s speed=0.243x    frame=  162 fps= 15 q=47.0 size=       1kB time=00:00:02.58 bitrate=   2.3kbits/s speed=0.246x    frame=  170 fps= 15 q=47.0 size=       1kB time=00:00:02.74 bitrate=   2.1kbits/s speed=0.248x    frame=  178 fps= 15 q=47.0 size=       1kB time=00:00:02.90 bitrate=   2.0kbits/s speed=0.248x    frame=  187 fps= 15 q=47.0 size=       1kB time=00:00:03.08 bitrate=   1.9kbits/s speed=0.252x    frame=  196 fps= 15 q=47.0 size=       1kB time=00:00:03.26 bitrate=   1.8kbits/s speed=0.255x    frame=  204 fps= 15 q=47.0 size=       1kB time=00:00:03.42 bitrate=   1.7kbits/s speed=0.257x    frame=  213 fps= 15 q=47.0 size=       1kB time=00:00:03.60 bitrate=   1.6kbits/s speed=0.26x    frame=  221 fps= 15 q=47.0 size=       1kB time=00:00:03.76 bitrate=   1.6kbits/s speed=0.262x    frame=  230 fps= 15 q=47.0 size=    5129kB time=00:00:03.94 bitrate=10660.6kbits/s speed=0.263x    frame=  240 fps= 15 q=47.0 size=    5129kB time=00:00:04.14 bitrate=10145.7kbits/s speed=0.266x    frame=  248 fps= 15 q=47.0 size=    5129kB time=00:00:04.30 bitrate=9768.3kbits/s speed=0.267x    frame=  256 fps= 15 q=47.0 size=    5129kB time=00:00:04.46 bitrate=9417.9kbits/s speed=0.268x    frame=  264 fps= 15 q=47.0 size=    5129kB time=00:00:04.62 bitrate=9091.8kbits/s speed=0.269x    frame=  272 fps= 15 q=47.0 size=    5129kB time=00:00:04.78 bitrate=8787.6kbits/s speed=0.27x    frame=  277 fps= 15 q=47.0 size=    5129kB time=00:00:04.88 bitrate=8607.5kbits/s speed=0.264x    frame=  286 fps= 15 q=47.0 size=    6329kB time=00:00:05.06 bitrate=10245.0kbits/s speed=0.266x    frame=  294 fps= 15 q=47.0 size=    6329kB time=00:00:05.22 bitrate=9931.0kbits/s speed=0.267x    frame=  302 fps= 15 q=47.0 size=    6329kB time=00:00:05.38 bitrate=9635.7kbits/s speed=0.265x    frame=  311 fps= 15 q=47.0 size=    6329kB time=00:00:05.56 bitrate=9323.8kbits/s speed=0.267x    frame=  319 fps= 15 q=47.0 size=    6329kB time=00:00:05.72 bitrate=9063.1kbits/s speed=0.268x    frame=  327 fps= 15 q=47.0 size=    6329kB time=00:00:05.88 bitrate=8816.5kbits/s speed=0.269x    frame=  331 fps= 15 q=47.0 size=    6329kB time=00:00:05.96 bitrate=8698.2kbits/s speed=0.265x    frame=  341 fps= 15 q=47.0 size=    6329kB time=00:00:06.16 bitrate=8415.8kbits/s speed=0.268x    frame=  348 fps= 15 q=47.0 size=    6329kB time=00:00:06.30 bitrate=8228.8kbits/s speed=0.268x    frame=  356 fps= 15 q=47.0 size=    6329kB time=00:00:06.46 bitrate=8025.0kbits/s speed=0.269x    frame=  364 fps= 15 q=47.0 size=    6329kB time=00:00:06.62 bitrate=7831.1kbits/s speed=0.268x    frame=  372 fps= 15 q=47.0 size=    6329kB time=00:00:06.78 bitrate=7646.3kbits/s speed=0.269x    frame=  380 fps= 15 q=47.0 size=    6329kB time=00:00:06.94 bitrate=7470.1kbits/s speed=0.27x    frame=  389 fps= 15 q=47.0 size=    6329kB time=00:00:07.12 bitrate=7281.3kbits/s speed=0.27x    frame=  398 fps= 15 q=47.0 size=    6329kB time=00:00:07.30 bitrate=7101.7kbits/s speed=0.272x    frame=  405 fps= 15 q=47.0 size=    6329kB time=00:00:07.44 bitrate=6968.1kbits/s speed=0.272x    frame=  413 fps= 15 q=47.0 size=    6329kB time=00:00:07.60 bitrate=6821.4kbits/s speed=0.272x    frame=  420 fps= 15 q=47.0 size=    6329kB time=00:00:07.74 bitrate=6698.1kbits/s speed=0.272x    frame=  430 fps= 15 q=47.0 size=    6329kB time=00:00:07.94 bitrate=6529.4kbits/s speed=0.273x    frame=  438 fps= 15 q=47.0 size=    6329kB time=00:00:08.10 bitrate=6400.4kbits/s speed=0.274x    frame=  446 fps= 15 q=47.0 size=    6329kB time=00:00:08.26 bitrate=6276.5kbits/s speed=0.274x    frame=  453 fps= 15 q=47.0 size=    6329kB time=00:00:08.40 bitrate=6171.9kbits/s speed=0.274x    frame=  461 fps= 15 q=47.0 size=    6329kB time=00:00:08.56 bitrate=6056.5kbits/s speed=0.275x    frame=  470 fps= 15 q=47.0 size=    6329kB time=00:00:08.74 bitrate=5931.8kbits/s speed=0.275x    frame=  478 fps= 15 q=47.0 size=    6329kB time=00:00:08.90 bitrate=5825.2kbits/s speed=0.276x    frame=  486 fps= 15 q=47.0 size=    6329kB time=00:00:09.06 bitrate=5722.3kbits/s speed=0.275x    frame=  494 fps= 15 q=47.0 size=   11470kB time=00:00:09.22 bitrate=10190.5kbits/s speed=0.276x    frame=  500 fps= 15 q=47.0 size=   11470kB time=00:00:09.34 bitrate=10059.6kbits/s speed=0.275x    frame=  500 fps= 14 q=-1.0 Lsize=   12478kB time=00:00:09.94 bitrate=10282.9kbits/s speed=0.282x    
video:12474kB audio:0kB subtitle:0kB other streams:0kB global headers:0kB muxing overhead: 0.036170%
bench: utime=122.648s
bench: maxrss=1337368kB
[libx264 @ 0x393d1c0] frame I:2     Avg QP:35.95  size:313613
[libx264 @ 0x393d1c0] frame P:126   Avg QP:45.74  size: 46255
[libx264 @ 0x393d1c0] frame B:372   Avg QP:48.68  size: 16981
[libx264 @ 0x393d1c0] consecutive B-frames:  0.8%  0.0%  0.0% 99.2%
[libx264 @ 0x393d1c0] mb I  I16..4: 25.2% 55.9% 18.8%
[libx264 @ 0x393d1c0] mb P  I16..4: 10.3% 19.7%  0.1%  P16..4: 13.9%  1.7%  0.3%  0.0%  0.0%    skip:54.0%
[libx264 @ 0x393d1c0] mb B  I16..4:  1.3%  1.4%  0.0%  B16..8: 16.6%  1.1%  0.0%  direct: 6.7%  skip:72.9%  L0:45.0% L1:54.1% BI: 0.9%
[libx264 @ 0x393d1c0] final ratefactor: 39.08
[libx264 @ 0x393d1c0] 8x8 transform intra:62.4% inter:85.8%
[libx264 @ 0x393d1c0] coded y,uvDC,uvAC intra: 20.9% 52.1% 12.9% inter: 2.3% 5.6% 0.1%
[libx264 @ 0x393d1c0] i16 v,h,dc,p: 48% 23% 17% 12%
[libx264 @ 0x393d1c0] i8 v,h,dc,ddl,ddr,vr,hd,vl,hu: 18% 13% 41%  6%  4%  5%  4%  5%  4%
[libx264 @ 0x393d1c0] i4 v,h,dc,ddl,ddr,vr,hd,vl,hu: 20% 17% 11%  9%  9%  9%  8%  9%  9%
[libx264 @ 0x393d1c0] i8c dc,h,v,p: 81%  7% 11%  1%
[libx264 @ 0x393d1c0] Weighted P-Frames: Y:1.6% UV:0.0%
[libx264 @ 0x393d1c0] ref P L0: 73.9% 26.1%
[libx264 @ 0x393d1c0] ref B L0: 90.3%  9.7%
[libx264 @ 0x393d1c0] ref B L1: 97.5%  2.5%
[libx264 @ 0x393d1c0] kb/s:10217.97
